<?xml version="1.0" encoding="utf-8"?>
<!-- Generator: Adobe Illustrator 25.4.1, SVG Export Plug-In . SVG Version: 6.00 Build 0)  -->
<svg version="1.1" xmlns="http://www.w3.org/2000/svg" xmlns:xlink="http://www.w3.org/1999/xlink" x="0px" y="0px"
	 viewBox="0 0 64 64" style="enable-background:new 0 0 64 64;" xml:space="preserve">
<style type="text/css">
	.st0{display:none;}
	.st1{display:inline;fill:#BFE8E9;}
	.st2{display:inline;fill:#E5EBEE;}
	.st3{display:inline;opacity:0.1;}
	.st4{display:inline;fill:#1D1D1D;}
	.st5{fill:none;stroke:#6360A5;stroke-width:8;stroke-miterlimit:10;}
	.st6{fill:#3C388E;}
	.st7{fill:none;stroke:#6360A5;stroke-width:4;stroke-miterlimit:10;}
	.st8{fill:none;stroke:#000000;stroke-miterlimit:10;}
	.st9{fill:none;stroke:#4D4D4D;stroke-width:2;stroke-miterlimit:10;}
	.st10{fill:#206095; stroke:none}
	.st11{fill:#99B1BC;}
	.st12{fill:#4C7689;}
	.st13{fill:#FE934C;}
	.st14{fill:#6390B5;}
	.st15{fill:#0F8243;}
	.st16{fill:#FFFFFF;}
	.st17{fill:#787878;}
	.st18{fill:none;stroke:#000000;stroke-width:4;stroke-linecap:round;stroke-miterlimit:10;}
</style>
<g id="Circle" class="st0">
</g>
<g id="Grid" class="st0">
	<g class="st3">
		<path d="M52,56H12c-2.2,0-4-1.8-4-4V12c0-2.2,1.8-4,4-4h40c2.2,0,4,1.8,4,4v40C56,54.2,54.2,56,52,56z"/>
	</g>
	<g class="st3">
		<path d="M48,60H16c-2.2,0-4-1.8-4-4V8c0-2.2,1.8-4,4-4h32c2.2,0,4,1.8,4,4v48C52,58.2,50.2,60,48,60z"/>
	</g>
	<g class="st3">
		<path d="M60,16v32c0,2.2-1.8,4-4,4H8c-2.2,0-4-1.8-4-4V16c0-2.2,1.8-4,4-4h48C58.2,12,60,13.8,60,16z"/>
	</g>
	<circle class="st3" cx="32" cy="32" r="28"/>
</g>
<g id="Artwork_16x16">
</g>
<g id="Artwork_32x32">
</g>
<g id="Artwork_64x64">
	<g>
		<path class="st10" d="M30.6,28.8c-0.9,0-1.6,0.3-2,0.9c-0.5,0.6-0.7,1.5-0.7,2.7c0,1.2,0.2,2.1,0.7,2.7s1.1,0.9,2,0.9
			c1.8,0,2.7-1.2,2.7-3.6C33.3,30.1,32.4,28.8,30.6,28.8z"/>
		<path class="st10" d="M48.4,20.5c-1.6-5.3-6.6-9.2-12.4-9.2c-5.1,0-9.5,2.9-11.6,7.2c-1.1-0.4-2.2-0.6-3.4-0.6
			c-5.5,0-9.9,4.4-10,9.9c-4.1,1.3-7,5.1-7,9.5v0c0,5.5,4.5,10,10,10h33c1.1,0,2.2-0.2,3.1-0.5c5.7-1.6,9.9-6.8,9.9-13
			C60,27,55,21.4,48.4,20.5z M21,36.1c0.8,0,1.7-0.2,2.7-0.6v1.9c-0.9,0.4-1.9,0.5-2.9,0.5c-1.6,0-2.7-0.5-3.6-1.4
			c-0.8-0.9-1.2-2.3-1.2-4.1c0-1.1,0.2-2.1,0.6-2.9c0.4-0.8,1-1.5,1.7-1.9C19.1,27.2,20,27,21,27c1,0,2.1,0.3,3.1,0.8l-0.7,1.8
			c-0.4-0.2-0.8-0.4-1.2-0.5s-0.8-0.2-1.2-0.2c-0.9,0-1.5,0.3-2,1c-0.5,0.6-0.7,1.5-0.7,2.7C18.3,34.9,19.2,36.1,21,36.1z
			 M34.4,36.6c-0.9,1-2.1,1.4-3.8,1.4s-2.9-0.5-3.8-1.4c-0.9-1-1.3-2.3-1.3-4.1s0.4-3.1,1.3-4.1c0.9-0.9,2.1-1.4,3.8-1.4
			s2.9,0.5,3.8,1.4c0.9,0.9,1.3,2.3,1.3,4.1C35.7,34.2,35.3,35.6,34.4,36.6z M44.7,37.8h-7.5v-1.6l2.7-2.7c0.8-0.8,1.3-1.4,1.6-1.7
			c0.2-0.3,0.4-0.6,0.5-0.9c0.1-0.3,0.2-0.5,0.2-0.8c0-0.4-0.1-0.8-0.4-1s-0.6-0.3-0.9-0.3c-0.4,0-0.8,0.1-1.2,0.3s-0.8,0.5-1.2,0.8
			l-1.2-1.5c0.5-0.4,1-0.8,1.3-1s0.7-0.3,1.1-0.4C40,27,40.5,27,41,27c0.7,0,1.3,0.1,1.8,0.4c0.5,0.2,0.9,0.6,1.2,1s0.4,0.9,0.4,1.5
			c0,0.5-0.1,1-0.3,1.4c-0.2,0.4-0.4,0.9-0.8,1.3s-1,1.1-1.9,1.9L40,35.8v0.1h4.7V37.8z M53.4,34.3h-5.3c0,0.6,0.2,1.1,0.6,1.5
			s0.8,0.5,1.5,0.5c0.5,0,1-0.1,1.4-0.2s0.9-0.3,1.4-0.5v1.7c-0.4,0.2-0.8,0.3-1.3,0.4c-0.4,0.1-1,0.1-1.6,0.1
			c-1.3,0-2.3-0.4-3.1-1.1c-0.7-0.7-1.1-1.8-1.1-3.1c0-1.4,0.3-2.4,1-3.2c0.7-0.8,1.6-1.1,2.8-1.1c1.2,0,2.1,0.3,2.7,1s1,1.6,1,2.7
			V34.3z"/>
		<path class="st10" d="M49.7,31.1c-0.5,0-0.8,0.2-1.1,0.5c-0.3,0.3-0.4,0.7-0.5,1.3h3.1c0-0.6-0.2-1-0.4-1.3
			C50.5,31.2,50.2,31.1,49.7,31.1z"/>
	</g>
</g>
<g id="Notes">
</g>
</svg>
