<?xml version="1.0" encoding="utf-8"?>
<!-- Generator: Adobe Illustrator 25.4.1, SVG Export Plug-In . SVG Version: 6.00 Build 0)  -->
<svg version="1.1" xmlns="http://www.w3.org/2000/svg" xmlns:xlink="http://www.w3.org/1999/xlink" x="0px" y="0px"
	 viewBox="0 0 64 64" style="enable-background:new 0 0 64 64;" xml:space="preserve">
<style type="text/css">
	.st0{display:none;}
	.st1{display:inline;fill:#BFE8E9;}
	.st2{display:inline;fill:#E5EBEE;}
	.st3{display:inline;opacity:0.1;}
	.st4{display:inline;fill:#1D1D1D;}
	.st5{fill:#CFE6D9;}
	.st6{fill:none;stroke:#6360A5;stroke-width:8;stroke-miterlimit:10;}
	.st7{fill:#3C388E;}
	.st8{fill:none;stroke:#6360A5;stroke-width:4;stroke-miterlimit:10;}
	.st9{fill:none;stroke:#000000;stroke-miterlimit:10;}
	.st10{fill:none;stroke:#4D4D4D;stroke-width:2;stroke-miterlimit:10;}
	.st11{fill:#003C57;}
	.st12{fill:#99B1BC;}
	.st13{fill:none;stroke:#4C7689;stroke-width:3;stroke-linecap:round;stroke-miterlimit:10;}
	.st14{fill:#4C7689;}
	.st15{fill:#FFFFFF;}
	.st16{fill:none;stroke:#000000;stroke-width:3;stroke-linecap:round;stroke-linejoin:round;stroke-miterlimit:10;}
	.st17{fill:none;stroke:#FFFFFF;stroke-width:1.9783;stroke-linecap:round;stroke-linejoin:round;stroke-miterlimit:10;}
	.st18{fill:#0F8243;}
	.st19{fill:#FFF1E9;}
	.st20{fill:#FE934C;}
	.st21{fill:none;stroke:#FFFFFF;stroke-width:1.5;stroke-linecap:round;stroke-linejoin:round;stroke-miterlimit:10;}
	.st22{fill:#206095;}
	.st23{fill:#6390B5;}
</style>
<g id="Circle" class="st0">
</g>
<g id="Grid" class="st0">
	<g class="st3">
		<path d="M52,56H12c-2.2,0-4-1.8-4-4V12c0-2.2,1.8-4,4-4h40c2.2,0,4,1.8,4,4v40C56,54.2,54.2,56,52,56z"/>
	</g>
	<g class="st3">
		<path d="M48,60H16c-2.2,0-4-1.8-4-4V8c0-2.2,1.8-4,4-4h32c2.2,0,4,1.8,4,4v48C52,58.2,50.2,60,48,60z"/>
	</g>
	<g class="st3">
		<path d="M60,16v32c0,2.2-1.8,4-4,4H8c-2.2,0-4-1.8-4-4V16c0-2.2,1.8-4,4-4h48C58.2,12,60,13.8,60,16z"/>
	</g>
	<circle class="st3" cx="32" cy="32" r="28"/>
</g>
<g id="Artwork_16x16">
</g>
<g id="Artwork_32x32">
</g>
<g id="Artwork_64x64">
	<path class="st22" d="M32,4C16.5,4,4,16.5,4,32s12.5,28,28,28s28-12.5,28-28S47.5,4,32,4z M43,29.7L32.6,50.5
		c-0.2,0.4-0.6,0.7-1,0.6c-0.6-0.1-1-0.5-0.9-1.1V35.8H22c-0.2,0-0.3,0-0.5-0.1c-0.5-0.3-0.7-0.9-0.4-1.4l10.4-20.8
		c0.2-0.4,0.6-0.7,1-0.6c0.6,0.1,1,0.5,0.9,1.1v14.2h8.6l0,0c0.2,0,0.3,0,0.5,0.1C43.1,28.6,43.2,29.3,43,29.7z"/>
</g>
<g id="Notes">
</g>
</svg>
