<?xml version="1.0" encoding="utf-8"?>
<!-- Generator: Adobe Illustrator 25.4.1, SVG Export Plug-In . SVG Version: 6.00 Build 0)  -->
<svg version="1.1" xmlns="http://www.w3.org/2000/svg" xmlns:xlink="http://www.w3.org/1999/xlink" x="0px" y="0px"
	 viewBox="0 0 64 64" style="enable-background:new 0 0 64 64;" xml:space="preserve">
<style type="text/css">
	.st0{display:none;}
	.st1{display:inline;fill:#BFE8E9;}
	.st2{display:inline;fill:#E5EBEE;}
	.st3{display:inline;opacity:0.1;}
	.st4{display:inline;fill:#1D1D1D;}
	.st5{fill:#CFE6D9;}
	.st6{fill:none;stroke:#6360A5;stroke-width:8;stroke-miterlimit:10;}
	.st7{fill:#3C388E;}
	.st8{fill:none;stroke:#6360A5;stroke-width:4;stroke-miterlimit:10;}
	.st9{fill:none;stroke:#000000;stroke-miterlimit:10;}
	.st10{fill:none;stroke:#4D4D4D;stroke-width:2;stroke-miterlimit:10;}
	.st11{fill:#003C57;}
	.st12{fill:#99B1BC;}
	.st13{fill:none;stroke:#4C7689;stroke-width:3;stroke-linecap:round;stroke-miterlimit:10;}
	.st14{fill:#4C7689;}
	.st15{fill:#FFFFFF;}
	.st16{fill:none;stroke:#000000;stroke-width:3;stroke-linecap:round;stroke-linejoin:round;stroke-miterlimit:10;}
	.st17{fill:none;stroke:#FFFFFF;stroke-width:1.9783;stroke-linecap:round;stroke-linejoin:round;stroke-miterlimit:10;}
	.st18{fill:#0F8243;}
	.st19{fill:#FFF1E9;}
	.st20{fill:#FE934C;}
	.st21{fill:none;stroke:#FFFFFF;stroke-width:1.5;stroke-linecap:round;stroke-linejoin:round;stroke-miterlimit:10;}
	.st22{fill:#206095;}
	.st23{fill:#6390B5;}
</style>
<g id="Circle" class="st0">
</g>
<g id="Grid" class="st0">
	<g class="st3">
		<path d="M52,56H12c-2.2,0-4-1.8-4-4V12c0-2.2,1.8-4,4-4h40c2.2,0,4,1.8,4,4v40C56,54.2,54.2,56,52,56z"/>
	</g>
	<g class="st3">
		<path d="M48,60H16c-2.2,0-4-1.8-4-4V8c0-2.2,1.8-4,4-4h32c2.2,0,4,1.8,4,4v48C52,58.2,50.2,60,48,60z"/>
	</g>
	<g class="st3">
		<path d="M60,16v32c0,2.2-1.8,4-4,4H8c-2.2,0-4-1.8-4-4V16c0-2.2,1.8-4,4-4h48C58.2,12,60,13.8,60,16z"/>
	</g>
	<circle class="st3" cx="32" cy="32" r="28"/>
</g>
<g id="Artwork_16x16">
</g>
<g id="Artwork_32x32">
</g>
<g id="Artwork_64x64">
	<g>
		<path class="st22" d="M32.6,26.1c0.9,0,1.9,0.2,2.8,0.6l-0.7,1.6c-0.7-0.3-1.4-0.5-1.9-0.5c-0.4,0-0.7,0.1-0.9,0.3
			c-0.2,0.2-0.3,0.5-0.3,0.9v1.4h2.7v1.6h-2.7v1c0,0.8-0.4,1.4-1.1,1.8h5.1v1.9h-7.5V35c0.5-0.2,0.8-0.4,1-0.7
			c0.2-0.3,0.3-0.6,0.3-1.1v-1h-1.3v-1.6h1.3v-1.4c0-1,0.3-1.7,0.8-2.2C30.8,26.4,31.6,26.1,32.6,26.1z"/>
	</g>
	<path class="st22" d="M14,38c-4.4,0-8,3.6-8,8c0,4.4,3.6,8,8,8c4.4,0,8-3.6,8-8C22,41.6,18.4,38,14,38z M17,50h-6.3v-1.5
		c0.4-0.2,0.7-0.4,0.9-0.6c0.2-0.2,0.2-0.5,0.2-0.9v-0.9h-1.1v-1.3h1.1v-1.2c0-0.8,0.2-1.4,0.7-1.9c0.5-0.4,1.1-0.7,1.9-0.7
		c0.8,0,1.6,0.2,2.3,0.5l-0.6,1.4c-0.6-0.3-1.2-0.4-1.6-0.4c-0.3,0-0.6,0.1-0.7,0.3c-0.2,0.2-0.3,0.4-0.3,0.8v1.2h2.3v1.3h-2.3v0.9
		c0,0.7-0.3,1.2-0.9,1.5H17V50z"/>
	<path class="st22" d="M58,16H6c-1.1,0-2,0.9-2,2v28c0-5.5,4.5-10,10-10c5.5,0,10,4.5,10,10c0,0.7-0.1,1.4-0.2,2H58c1.1,0,2-0.9,2-2
		V18C60,16.9,59.1,16,58,16z M16,23h-5v5H8v-5v-3h3h5V23z M31.9,42c-5.5,0-10-4.5-10-10c0-5.5,4.5-10,10-10c5.5,0,10,4.5,10,10
		C41.9,37.5,37.4,42,31.9,42z M56,41v3h-3h-5v-3h5v-5h3V41z M56,23v5h-3v-5h-5v-3h5h3V23z"/>
</g>
<g id="Notes">
</g>
</svg>
