<?xml version="1.0" encoding="utf-8"?>
<!-- Generator: Adobe Illustrator 25.4.1, SVG Export Plug-In . SVG Version: 6.00 Build 0)  -->
<svg version="1.1" xmlns="http://www.w3.org/2000/svg" xmlns:xlink="http://www.w3.org/1999/xlink" x="0px" y="0px"
	 viewBox="0 0 64 64" style="enable-background:new 0 0 64 64;" xml:space="preserve">
<style type="text/css">
	.st0{display:none;}
	.st1{display:inline;fill:#BFE8E9;}
	.st2{display:inline;fill:#E5EBEE;}
	.st3{display:inline;opacity:0.1;}
	.st4{display:inline;fill:#1D1D1D;}
	.st5{fill:none;stroke:#6360A5;stroke-width:8;stroke-miterlimit:10;}
	.st6{fill:#3C388E;}
	.st7{fill:none;stroke:#6360A5;stroke-width:4;stroke-miterlimit:10;}
	.st8{fill:none;stroke:#000000;stroke-miterlimit:10;}
	.st9{fill:none;stroke:#4D4D4D;stroke-width:2;stroke-miterlimit:10;}
	.st10{fill:#206095;}
	.st11{fill:#99B1BC;}
	.st12{fill:#4C7689;}
	.st13{fill:#FE934C;}
	.st14{fill:#6390B5;}
	.st15{fill:#0F8243;}
	.st16{fill:none;stroke:#99B1BC;stroke-width:4;stroke-linecap:round;stroke-miterlimit:10;}
	.st17{fill:#FFF1E9;}
	.st18b{fill:#DE4E5F;}
	.st19{fill:none;stroke:#206095;stroke-width:2.5;stroke-linecap:round;stroke-linejoin:round;stroke-miterlimit:10;}
</style>
<g id="Circle" class="st0">
</g>
<g id="Grid" class="st0">
	<g class="st3">
		<path d="M52,56H12c-2.2,0-4-1.8-4-4V12c0-2.2,1.8-4,4-4h40c2.2,0,4,1.8,4,4v40C56,54.2,54.2,56,52,56z"/>
	</g>
	<g class="st3">
		<path d="M48,60H16c-2.2,0-4-1.8-4-4V8c0-2.2,1.8-4,4-4h32c2.2,0,4,1.8,4,4v48C52,58.2,50.2,60,48,60z"/>
	</g>
	<g class="st3">
		<path d="M60,16v32c0,2.2-1.8,4-4,4H8c-2.2,0-4-1.8-4-4V16c0-2.2,1.8-4,4-4h48C58.2,12,60,13.8,60,16z"/>
	</g>
	<circle class="st3" cx="32" cy="32" r="28"/>
</g>
<g id="Artwork_16x16">
</g>
<g id="Artwork_32x32">
</g>
<g id="Artwork_64x64">
	<g>
		<path class="st10" d="M26.8,55.9c-5.4,0-9.8-4.4-9.8-9.8c0-3,1.4-5.9,3.8-7.7V13.9c0-3.3,2.7-6,6-6c3.3,0,6,2.7,6,6v24.4
			c2.4,1.8,3.8,4.7,3.8,7.7C36.6,51.5,32.2,55.9,26.8,55.9z M26.8,10.4c-1.9,0-3.5,1.6-3.5,3.5v25c0,0.4-0.2,0.8-0.6,1
			c-2,1.4-3.2,3.6-3.2,6.1c0,4,3.3,7.3,7.3,7.3c4,0,7.3-3.3,7.3-7.3c0-2.4-1.2-4.7-3.2-6.1c-0.3-0.2-0.6-0.6-0.6-1v-25
			C30.3,12,28.7,10.4,26.8,10.4z"/>
	</g>
	<path class="st18b" d="M28.4,41.4v-9.8v-6.4c0-0.9-0.7-1.6-1.6-1.6s-1.6,0.7-1.6,1.6v6.4v9.8c-2,0.7-3.4,2.5-3.4,4.7
		c0,2.8,2.2,5,5,5c2.8,0,5-2.2,5-5C31.8,43.9,30.3,42,28.4,41.4z"/>
	<g>
		<path class="st10" d="M46.5,18.6h-9.2c-0.7,0-1.2-0.6-1.2-1.2s0.6-1.2,1.2-1.2h9.2c0.7,0,1.2,0.6,1.2,1.2S47.2,18.6,46.5,18.6z"/>
	</g>
	<g>
		<path class="st10" d="M42,25.6h-4.7c-0.7,0-1.2-0.6-1.2-1.2s0.6-1.2,1.2-1.2H42c0.7,0,1.2,0.6,1.2,1.2S42.7,25.6,42,25.6z"/>
	</g>
	<g>
		<path class="st10" d="M46.5,32.6h-9.2c-0.7,0-1.2-0.6-1.2-1.2s0.6-1.2,1.2-1.2h9.2c0.7,0,1.2,0.6,1.2,1.2S47.2,32.6,46.5,32.6z"/>
	</g>
</g>
<g id="Notes">
</g>
</svg>
