<?xml version="1.0" encoding="utf-8"?>
<!-- Generator: Adobe Illustrator 25.4.1, SVG Export Plug-In . SVG Version: 6.00 Build 0)  -->
<svg version="1.1" xmlns="http://www.w3.org/2000/svg" xmlns:xlink="http://www.w3.org/1999/xlink" x="0px" y="0px"
	 viewBox="0 0 64 64" style="enable-background:new 0 0 64 64;" xml:space="preserve">
<style type="text/css">
	.st0{display:none;}
	.st1{display:inline;fill:#BFE8E9;}
	.st2{display:inline;fill:#E5EBEE;}
	.st3{display:inline;opacity:0.1;}
	.st4{display:inline;fill:#1D1D1D;}
	.st5{fill:none;stroke:#6360A5;stroke-width:8;stroke-miterlimit:10;}
	.st6{fill:#3C388E;}
	.st7{fill:none;stroke:#6360A5;stroke-width:4;stroke-miterlimit:10;}
	.st8{fill:none;stroke:#000000;stroke-miterlimit:10;}
	.st9{fill:none;stroke:#4D4D4D;stroke-width:2;stroke-miterlimit:10;}
	.st10{fill:#206095;}
	.st11{fill:#99B1BC;}
	.st12{fill:#4C7689;}
	.st13{fill:#FE934C;}
	.st14{fill:#6390B5;}
	.st15{fill:#0F8243;}
	.st16{fill:none;stroke:#99B1BC;stroke-width:4;stroke-linecap:round;stroke-miterlimit:10;}
	.st17{fill:#FFF1E9;}
</style>
<g id="Circle" class="st0">
	<circle class="st1" cx="-18.9" cy="62.8" r="44"/>
	<circle class="st1" cx="-18.9" cy="-33.2" r="44"/>
</g>
<g id="Grid" class="st0">
	<g class="st3">
		<path d="M52,56H12c-2.2,0-4-1.8-4-4V12c0-2.2,1.8-4,4-4h40c2.2,0,4,1.8,4,4v40C56,54.2,54.2,56,52,56z"/>
	</g>
	<g class="st3">
		<path d="M48,60H16c-2.2,0-4-1.8-4-4V8c0-2.2,1.8-4,4-4h32c2.2,0,4,1.8,4,4v48C52,58.2,50.2,60,48,60z"/>
	</g>
	<g class="st3">
		<path d="M60,16v32c0,2.2-1.8,4-4,4H8c-2.2,0-4-1.8-4-4V16c0-2.2,1.8-4,4-4h48C58.2,12,60,13.8,60,16z"/>
	</g>
	<circle class="st3" cx="32" cy="32" r="28"/>
</g>
<g id="Artwork_16x16">
</g>
<g id="Artwork_32x32">
</g>
<g id="Artwork_64x64">
	<polyline class="st16" points="46,6 32,12.1 18,6 	"/>
	<path class="st12" d="M55,54H9c-1.7,0-3-1.3-3-3V15c0-1.7,1.3-3,3-3h46c1.7,0,3,1.3,3,3v36C58,52.7,56.7,54,55,54z"/>
	<path class="st13" d="M51,48H13c-1.7,0-3-1.3-3-3V19c0-1.7,1.3-3,3-3h38c1.7,0,3,1.3,3,3v26C54,46.7,52.7,48,51,48z"/>
	<circle class="st11" cx="44.5" cy="51" r="1.5"/>
	<circle class="st13" cx="40.5" cy="51" r="1.5"/>
	<path class="st11" d="M10,54h44v0c0,2.2-1.8,4-4,4H14C11.8,58,10,56.2,10,54L10,54z"/>
	<rect x="47.5" y="49.5" class="st17" width="4" height="3"/>
	<path class="st17" d="M39.4,30.4l-7,14.1c-0.1,0.3-0.4,0.5-0.7,0.4c-0.4,0-0.6-0.4-0.6-0.7v-9.6h-5.8c-0.1,0-0.2,0-0.3-0.1
		c-0.3-0.2-0.4-0.6-0.3-0.9l7-14.1c0.1-0.3,0.4-0.5,0.7-0.4c0.4,0,0.6,0.4,0.6,0.7v9.6h5.8l0,0c0.1,0,0.2,0,0.3,0.1
		C39.4,29.7,39.6,30.1,39.4,30.4z"/>
</g>
<g id="Notes">
</g>
</svg>
